<svg width="141" height="150" viewBox="0 0 141 150" fill="none" xmlns="http://www.w3.org/2000/svg">
<path d="M5.57324 5.54912C10.1082 -10.76 42.9583 31.6465 42.9583 31.6465C26.7805 34.5412 13.187 59.4446 10.1011 61.8548C-4.19156 55.9589 1.0383 21.8583 5.57324 5.54912Z" fill="#282525"/>
<path d="M136.204 5.76273C132.524 -12.4006 95.8084 32.0807 95.8084 32.0807C112.4 36.2503 124.137 65.259 128.259 67.2352C143.447 61.6492 139.884 23.926 136.204 5.76273Z" fill="#282525"/>
<path d="M72 18.5666C28.1746 18.5666 1.00002 55.5477 1.00002 101.166C7.61276 117.3 31.0706 149.567 72 149.567V18.5666Z" fill="#282525"/>
<path d="M72 18.5666C113.974 18.5666 140 55.5477 140 101.166C133.667 117.3 111.2 149.567 72 149.567V18.5666Z" fill="#282525"/>
<path d="M70.4279 22.9595C31.5667 22.9595 7.47021 57.6538 7.47021 100.452C13.3339 115.587 34.1346 145.859 70.4279 145.859V22.9595Z" fill="#E8904F"/>
<path d="M69.4281 22.9595C108.289 22.9595 132.386 57.6538 132.386 100.452C126.522 115.587 105.721 145.859 69.4281 145.859V22.9595Z" fill="#E8904F"/>
<path d="M83.3423 121.628C74.078 88.1079 34.8244 84.8148 17.4538 82.9108C10.7625 82.1773 5.87345 86.7179 14.5587 94.337C21.5064 100.432 41.8459 123.532 42.8109 138.769C56.3214 136.229 83.3423 129.246 83.3423 121.628Z" fill="white"/>
<path d="M57.5134 121.628C66.7777 88.1079 106.031 84.8148 123.402 82.9108C130.093 82.1773 134.982 86.7179 126.297 94.337C119.349 100.432 99.0098 123.532 98.0448 138.769C84.5343 136.229 57.5134 129.246 57.5134 121.628Z" fill="white"/>
<ellipse cx="70.4279" cy="99.3383" rx="13.4525" ry="11.2264" fill="white"/>
<path d="M70.428 97.0157V101.568C70.428 102.706 65.908 107.257 60.7422 107.257" stroke="black"/>
<path d="M70.428 97.0142V101.566C70.428 102.704 74.948 107.256 80.1138 107.256" stroke="black"/>
<ellipse cx="70.0243" cy="95.8325" rx="4.43933" ry="3.54518" fill="black"/>
<path fill-rule="evenodd" clip-rule="evenodd" d="M58.0556 78.7653C58.4932 78.053 58.145 76.8306 57.2778 76.035C55.7167 74.6029 53.2218 73.5669 50.2515 73.5496C47.2238 73.5321 43.521 74.5573 39.335 77.5196C38.676 77.9859 38.7202 79.1427 39.4338 80.1034C40.1474 81.0641 41.2602 81.4647 41.9192 80.9984C45.8474 78.2185 49.1212 77.4028 51.5178 77.4167C53.9718 77.431 55.3489 78.2989 55.693 78.6146C56.5602 79.4102 57.6179 79.4777 58.0556 78.7653Z" fill="black"/>
<path fill-rule="evenodd" clip-rule="evenodd" d="M81.1434 79.6516C80.5613 79.0111 80.6677 77.8128 81.381 76.9752C82.6651 75.4675 84.9671 74.2538 87.9502 73.9698C90.991 73.6803 94.9185 74.3254 99.718 76.7761C100.474 77.162 100.66 78.2702 100.134 79.2515C99.6079 80.2329 98.569 80.7156 97.8134 80.3298C93.3094 78.03 89.855 77.5462 87.4481 77.7753C84.9834 78.01 83.7719 78.9626 83.4888 79.2949C82.7755 80.1325 81.7254 80.2922 81.1434 79.6516Z" fill="black"/>
<path d="M80.7905 61.1026C79.1531 62.1972 81.9399 65.7878 81.9399 65.7878C86.341 63.3102 91.3199 63.4383 92.2653 63.1484C95.6718 60.1282 84.2473 58.7918 80.7905 61.1026Z" fill="white"/>
<path d="M131.503 15.5849C128.455 0.333723 97.87 37.6666 97.87 37.6666C111.673 41.1734 121.416 65.5332 124.845 67.194C137.487 62.5095 134.551 30.8361 131.503 15.5849Z" fill="#E8904F"/>
<path d="M10.3256 13.0172C13.3386 -1.66475 38.9491 35.257 38.9491 35.257C26.8972 38.2946 17.3003 60.9006 15.0452 63.1381C4.19845 58.2779 7.31262 27.6991 10.3256 13.0172Z" fill="#E8904F"/>
<path d="M127.048 23.0749C123.754 14.3747 107.293 38.1092 107.293 38.1092C115.209 38.8452 123.418 51.7795 125.057 52.9382C131.463 48.9554 130.341 31.7751 127.048 23.0749Z" fill="white"/>
<path d="M14.8497 21.1816C18.4641 12.6035 34.033 36.9043 34.033 36.9043C26.0957 37.3601 17.4117 49.9957 15.7311 51.0957C9.47659 46.8891 11.2354 29.7597 14.8497 21.1816Z" fill="white"/>
<path d="M57.6221 60.4504C59.1529 61.6896 55.3656 65.809 55.3656 65.809C51.1502 63.0086 45.7463 63.188 44.7883 62.8632C41.7645 59.4365 54.3903 57.8343 57.6221 60.4504Z" fill="white"/>
</svg>
